<?xml version="1.0" standalone="no"?><!DOCTYPE svg PUBLIC "-//W3C//DTD SVG 1.1//EN" "http://www.w3.org/Graphics/SVG/1.1/DTD/svg11.dtd"><svg height="1024" node-id="1" sillyvg="true" template-height="1024" template-width="1024" version="1.1" viewBox="0 0 1024 1024" width="1024" xmlns="http://www.w3.org/2000/svg" xmlns:xlink="http://www.w3.org/1999/xlink"><defs node-id="34"><linearGradient gradientUnits="objectBoundingBox" id="linearGradient-1" node-id="5" spreadMethod="pad" x1="0.5" x2="0.5" y1="0.68847996" y2="0.000000000000000000000000000000006162976"><stop offset="0" stop-color="#95a4f7" stop-opacity="0"></stop><stop offset="1" stop-color="#c5d6ff" stop-opacity="0.44536883"></stop></linearGradient><linearGradient gradientUnits="objectBoundingBox" id="linearGradient-2" node-id="8" spreadMethod="pad" x1="0.5" x2="0.5" y1="1" y2="0.000000000000000000000000000000006162976"><stop offset="0" stop-color="#95a4f7" stop-opacity="0"></stop><stop offset="1" stop-color="#c5d6ff" stop-opacity="0.44536883"></stop></linearGradient><linearGradient gradientUnits="objectBoundingBox" id="linearGradient-3" node-id="11" spreadMethod="pad" x1="0.5" x2="0.5" y1="1" y2="0.000000000000000000000000000000006162976"><stop offset="0" stop-color="#95a4f7" stop-opacity="0"></stop><stop offset="1" stop-color="#c5d6ff" stop-opacity="0.44536883"></stop></linearGradient></defs><path d="M 0.00 0.00 L 1024.00 0.00 L 1024.00 1024.00 L 0.00 1024.00 Z" fill="#f4f5fc" fill-rule="evenodd" node-id="56" stroke="none" target-height="1024" target-width="1024" target-x="0" target-y="0"></path><path d="M 349.71 801.12 L 239.72 715.21 L 349.71 679.64 Z" fill="#e2e9ff" fill-rule="evenodd" id="路径-27" node-id="16" stroke="none" target-height="121.48059" target-width="109.99533" target-x="239.71594" target-y="679.6386"></path><g node-id="58"><path d="M 512.00 668.55 C 794.77 668.55 1024.00 807.52 1024.00 978.95 C 1024.00 994.25 1022.17 1009.29 1018.65 1024.00 L 5.35 1024.00 C 1.83 1009.29 0.00 994.25 0.00 978.95 C 0.00 807.52 229.23 668.55 512.00 668.55 Z" fill="url(#linearGradient-1)" fill-rule="evenodd" group-id="1" id="形状结合" node-id="18" stroke="none" target-height="355.45435" target-width="1024" target-x="0" target-y="668.546"></path><path d="M 81.27 219.43 L 81.27 218.98 C 78.60 219.28 75.89 219.43 73.14 219.43 C 32.75 219.43 0.00 186.68 0.00 146.29 C 0.00 105.89 32.75 73.14 73.14 73.14 C 77.90 73.14 82.55 73.60 87.06 74.46 C 101.74 31.16 142.72 0.00 190.98 0.00 C 250.41 0.00 298.81 47.25 300.64 106.24 C 303.31 105.85 306.05 105.65 308.83 105.65 C 340.24 105.65 365.71 131.12 365.71 162.54 C 365.71 193.96 340.24 219.43 308.83 219.43 C 306.07 219.43 303.35 219.23 300.70 218.85 L 300.70 219.43 L 81.27 219.43 Z" fill="url(#linearGradient-2)" fill-rule="evenodd" group-id="1" id="形状结合" node-id="19" stroke="none" target-height="219.42857" target-width="365.7143" target-x="0" target-y="0"></path><path d="M 715.17 260.06 L 715.17 259.91 C 713.83 260.01 712.48 260.06 711.11 260.06 C 681.94 260.06 658.29 236.41 658.29 207.24 C 658.29 178.06 681.94 154.41 711.11 154.41 C 714.24 154.41 717.30 154.68 720.28 155.20 C 731.39 126.22 759.49 105.65 792.38 105.65 C 833.94 105.65 867.82 138.48 869.52 179.62 C 872.16 179.08 874.91 178.79 877.71 178.79 C 900.16 178.79 918.35 196.99 918.35 219.43 C 918.35 241.87 900.16 260.06 877.71 260.06 C 874.93 260.06 872.21 259.78 869.59 259.25 L 869.59 260.06 L 715.17 260.06 Z" fill="url(#linearGradient-3)" fill-rule="evenodd" group-id="1" id="形状结合备份" node-id="20" stroke="none" target-height="154.41272" target-width="260.06348" target-x="658.2857" target-y="105.650795"></path><g node-id="59"><path d="M 203.28 506.66 L 204.68 507.48 L 205.62 508.70 L 206.04 510.19 L 205.84 511.80 L 200.93 525.64 L 196.03 537.84 L 191.14 548.55 L 186.29 557.89 L 181.47 566.00 L 176.71 572.99 L 172.28 578.61 L 167.90 583.40 L 163.55 587.44 L 159.24 590.80 L 154.95 593.53 L 150.65 595.69 L 146.34 597.30 L 142.00 598.41 L 140.80 598.61 L 140.49 599.02 L 137.11 603.23 L 133.31 607.64 L 131.72 609.41 L 125.86 615.45 L 120.02 620.72 L 114.20 625.25 L 108.39 629.12 L 102.57 632.35 L 96.73 634.98 L 90.53 637.13 L 84.28 638.66 L 77.95 639.59 L 71.50 639.91 L 64.91 639.63 L 58.16 638.72 L 56.65 638.12 L 55.54 637.04 L 54.92 635.63 L 54.88 634.00 L 55.48 632.49 L 56.56 631.39 L 57.98 630.76 L 59.60 630.73 L 65.61 631.54 L 71.47 631.79 L 77.21 631.49 L 82.87 630.65 L 88.46 629.26 L 94.01 627.31 L 99.22 624.94 L 104.44 622.01 L 109.69 618.50 L 114.98 614.34 L 120.31 609.51 L 125.71 603.94 L 127.32 602.15 L 130.16 598.88 L 129.21 598.78 L 124.37 597.89 L 119.34 596.41 L 114.10 594.29 L 112.37 593.47 L 111.65 593.01 L 108.73 590.46 L 106.35 587.92 L 104.45 585.39 L 102.99 582.86 L 101.84 580.12 L 101.13 577.42 L 100.83 574.75 L 100.92 572.06 L 101.41 569.43 L 102.28 566.82 L 103.57 564.21 L 105.31 561.58 L 107.65 558.89 L 110.37 556.41 L 113.51 554.14 L 116.88 552.20 L 120.48 550.56 L 124.33 549.23 L 128.29 548.25 L 132.30 547.66 L 136.39 547.45 L 141.03 547.72 L 144.86 548.40 L 147.99 549.43 L 150.55 550.76 L 152.62 552.38 L 154.37 554.41 L 155.68 556.71 L 156.55 559.35 L 156.96 562.39 L 156.87 565.90 L 156.17 570.04 L 154.77 574.73 L 152.53 580.06 L 149.31 586.14 L 148.43 587.59 L 149.23 587.21 L 153.27 584.93 L 157.36 581.99 L 161.51 578.32 L 165.74 573.84 L 170.05 568.46 L 174.46 562.06 L 178.81 554.80 L 183.24 546.34 L 187.77 536.55 L 192.37 525.30 L 197.05 512.44 L 198.13 509.23 L 198.95 507.82 L 200.17 506.88 L 201.66 506.47 L 203.28 506.66 Z M 136.74 590.71 L 136.94 590.45 L 141.10 584.51 L 144.17 579.43 L 146.32 575.12 L 147.72 571.47 L 148.55 568.16 L 148.84 565.42 L 148.67 563.15 L 148.13 561.25 L 147.24 559.65 L 145.99 558.30 L 144.36 557.20 L 142.29 556.35 L 139.68 555.79 L 136.39 555.58 L 133.11 555.75 L 129.90 556.22 L 126.74 556.99 L 123.66 558.04 L 120.80 559.32 L 118.14 560.82 L 115.66 562.58 L 113.56 564.47 L 111.80 566.49 L 110.27 568.88 L 109.35 571.22 L 108.97 573.54 L 109.09 575.89 L 109.71 578.13 L 110.91 580.47 L 112.77 582.95 L 115.45 585.61 L 116.36 586.37 L 117.49 586.91 L 122.00 588.70 L 126.33 589.93 L 130.52 590.62 L 134.60 590.81 L 136.74 590.71 Z" fill="#dee7fd" fill-rule="nonzero" group-id="1,2" id="路径-24" node-id="21" stroke="none" target-height="133.44958" target-width="151.15933" target-x="54.880753" target-y="506.46533"></path></g><g node-id="60"><path d="M 783.41 480.15 L 911.59 456.69 L 915.58 523.55 L 783.41 480.15 Z M 775.26 455.80 L 827.16 395.31 L 854.79 425.55 L 775.26 455.80 Z" fill="#dee6fc" fill-rule="evenodd" group-id="1,3" id="形状结合" node-id="22" stroke="none" target-height="128.24133" target-width="140.31915" target-x="775.2638" target-y="395.31055"></path></g><path d="M 322.58 349.46 L 680.29 349.46 C 682.50 349.46 684.29 351.25 684.29 353.46 L 684.29 800.57 C 684.29 802.78 682.50 804.57 680.29 804.57 L 322.58 804.57 C 320.37 804.57 318.58 802.78 318.58 800.57 L 318.58 353.46 C 318.58 351.25 320.37 349.46 322.58 349.46 Z" fill="#9eb8fe" fill-rule="evenodd" group-id="1" id="矩形" node-id="23" stroke="none" target-height="455.11108" target-width="365.71426" target-x="318.5778" target-y="349.46033"></path><path d="M 337.21 349.46 L 694.92 349.46 C 697.13 349.46 698.92 351.25 698.92 353.46 L 698.92 800.57 C 698.92 802.78 697.13 804.57 694.92 804.57 L 337.21 804.57 C 335.00 804.57 333.21 802.78 333.21 800.57 L 333.21 353.46 C 333.21 351.25 335.00 349.46 337.21 349.46 Z" fill="#bcd0ff" fill-rule="evenodd" group-id="1" id="矩形" node-id="24" stroke="none" target-height="455.11108" target-width="365.7143" target-x="333.20636" target-y="349.46033"></path><path d="M 373.84 446.98 L 495.75 446.98 L 495.75 463.24 L 373.84 463.24 Z" fill="#ffffff" fill-opacity="0.3495694" fill-rule="evenodd" group-id="1,4" id="矩形" node-id="25" stroke="none" target-height="16.253967" target-width="121.904755" target-x="373.84128" target-y="446.98413"></path><path d="M 373.84 503.87 L 495.75 503.87 L 495.75 520.13 L 373.84 520.13 Z" fill="#ffffff" fill-opacity="0.3495694" fill-rule="evenodd" group-id="1,5" id="矩形备份" node-id="26" stroke="none" target-height="16.253998" target-width="121.904755" target-x="373.84128" target-y="503.87302"></path><path d="M 373.84 560.76 L 658.29 560.76 L 658.29 577.02 L 373.84 577.02 Z" fill="#ffffff" fill-opacity="0.3495694" fill-rule="evenodd" group-id="1,6" id="矩形备份-2" node-id="27" stroke="none" target-height="16.253967" target-width="284.44443" target-x="373.84128" target-y="560.7619"></path><path d="M 373.84 617.65 L 658.29 617.65 L 658.29 633.90 L 373.84 633.90 Z" fill="#ffffff" fill-opacity="0.3495694" fill-rule="evenodd" group-id="1,7" id="矩形备份-3" node-id="28" stroke="none" target-height="16.253967" target-width="284.44443" target-x="373.84128" target-y="617.6508"></path><path d="M 762.63 397.84 C 762.63 460.68 711.69 511.62 648.85 511.62 C 586.01 511.62 535.07 460.68 535.07 397.84 C 535.07 335.01 586.01 284.07 648.85 284.07 C 711.69 284.07 762.63 335.01 762.63 397.84 Z" fill="#9eb8fe" fill-rule="evenodd" group-id="1" id="椭圆形" node-id="29" stroke="none" target-height="227.55554" target-width="227.5556" target-x="535.0698" target-y="284.06668"></path><path d="M 769.63 386.84 C 769.63 449.68 718.69 500.62 655.85 500.62 C 593.01 500.62 542.07 449.68 542.07 386.84 C 542.07 324.01 593.01 273.07 655.85 273.07 C 718.69 273.07 769.63 324.01 769.63 386.84 Z" fill="#bcd0ff" fill-rule="evenodd" group-id="1" id="椭圆形" node-id="30" stroke="none" target-height="227.55554" target-width="227.5556" target-x="542.0698" target-y="273.06668"></path><path d="M 657.60 317.99 L 651.43 318.29 L 645.86 319.14 L 640.81 320.51 L 636.23 322.37 L 632.07 324.70 L 628.28 327.53 L 624.84 330.87 L 621.84 334.44 L 619.29 338.32 L 617.19 342.54 L 615.52 347.14 L 614.31 352.15 L 613.56 357.63 L 613.33 363.63 L 628.74 363.63 L 628.94 358.69 L 629.54 354.30 L 630.48 350.41 L 631.75 346.97 L 633.31 343.91 L 635.17 341.20 L 637.28 338.71 L 639.66 336.61 L 642.33 334.88 L 645.34 333.50 L 648.72 332.49 L 652.53 331.86 L 656.82 331.65 L 660.90 331.84 L 664.53 332.40 L 667.77 333.30 L 670.84 334.63 L 673.55 336.35 L 675.94 338.47 L 678.21 341.14 L 680.02 344.22 L 681.37 347.77 L 682.24 351.87 L 682.57 356.61 L 682.34 359.78 L 681.67 362.87 L 680.53 365.93 L 678.89 368.97 L 676.72 372.02 L 674.45 374.61 L 670.09 379.04 L 662.67 385.99 L 657.31 391.67 L 654.17 395.55 L 651.91 398.85 L 650.39 401.67 L 648.89 405.35 L 647.79 409.38 L 647.11 413.79 L 646.88 418.64 L 646.88 423.12 L 662.48 423.12 L 662.48 418.64 L 662.70 414.75 L 663.39 411.10 L 664.55 407.66 L 666.19 404.40 L 667.80 401.81 L 669.89 399.11 L 672.31 396.49 L 675.35 393.67 L 686.91 383.06 L 691.15 378.65 L 693.78 374.68 L 695.83 370.46 L 697.32 365.94 L 698.24 361.08 L 698.56 355.83 L 698.30 350.70 L 697.57 346.05 L 696.42 341.83 L 694.84 337.98 L 692.86 334.47 L 690.47 331.26 L 687.64 328.33 L 684.68 325.87 L 681.51 323.76 L 678.11 321.98 L 674.45 320.53 L 670.71 319.44 L 666.67 318.65 L 662.31 318.16 L 657.60 317.99 Z M 654.68 436.78 L 652.27 436.97 L 650.12 437.56 L 648.15 438.57 L 646.29 440.09 L 644.80 441.81 L 643.77 443.72 L 643.15 445.86 L 642.97 448.28 L 643.17 450.70 L 643.75 452.84 L 644.77 454.81 L 646.29 456.67 L 648.12 458.11 L 650.10 459.13 L 652.27 459.76 L 654.68 459.99 L 657.08 459.76 L 659.26 459.13 L 661.24 458.11 L 663.06 456.67 L 664.59 454.97 L 665.67 453.04 L 666.34 450.84 L 666.58 448.28 L 666.34 445.85 L 665.70 443.71 L 664.68 441.80 L 663.26 440.09 L 661.38 438.58 L 659.33 437.56 L 657.11 436.97 L 654.68 436.78 Z" fill="#ffffff" fill-rule="nonzero" group-id="1,8" id="形状" node-id="32" stroke="none" target-height="141.99466" target-width="85.23578" target-x="613.3272" target-y="317.99265"></path></g></svg>