<?xml version="1.0" standalone="no"?><!DOCTYPE svg PUBLIC "-//W3C//DTD SVG 1.1//EN" "http://www.w3.org/Graphics/SVG/1.1/DTD/svg11.dtd"><svg height="1024" node-id="1" sillyvg="true" template-height="1024" template-width="1024" version="1.1" viewBox="0 0 1024 1024" width="1024" xmlns="http://www.w3.org/2000/svg" xmlns:xlink="http://www.w3.org/1999/xlink"><defs node-id="26"><linearGradient gradientUnits="objectBoundingBox" id="linearGradient-1" node-id="5" spreadMethod="pad" x1="0.5" x2="0.5" y1="0.68847996" y2="0.000000000000000000000000000000006162976"><stop offset="0" stop-color="#95a4f7" stop-opacity="0"></stop><stop offset="1" stop-color="#c5d6ff" stop-opacity="0.44536883"></stop></linearGradient><linearGradient gradientUnits="objectBoundingBox" id="linearGradient-2" node-id="8" spreadMethod="pad" x1="0.5" x2="0.5" y1="1" y2="0.000000000000000000000000000000006162976"><stop offset="0" stop-color="#95a4f7" stop-opacity="0"></stop><stop offset="1" stop-color="#c5d6ff" stop-opacity="0.44536883"></stop></linearGradient><linearGradient gradientUnits="objectBoundingBox" id="linearGradient-3" node-id="11" spreadMethod="pad" x1="0.5" x2="0.5" y1="1" y2="0.000000000000000000000000000000006162976"><stop offset="0" stop-color="#95a4f7" stop-opacity="0"></stop><stop offset="1" stop-color="#c5d6ff" stop-opacity="0.44536883"></stop></linearGradient></defs><path d="M 0.00 0.00 L 1024.00 0.00 L 1024.00 1024.00 L 0.00 1024.00 Z" fill="#f4f5fc" fill-rule="evenodd" node-id="48" stroke="none" target-height="1024" target-width="1024" target-x="0" target-y="0"></path><path d="M 387.66 731.43 L 298.95 696.75 L 409.38 670.04 Z" fill="#e2e9ff" fill-rule="evenodd" id="路径-27" node-id="16" stroke="none" target-height="61.38556" target-width="110.42865" target-x="298.95187" target-y="670.043"></path><g node-id="50"><path d="M 512.00 668.55 C 794.77 668.55 1024.00 807.52 1024.00 978.95 C 1024.00 994.25 1022.17 1009.29 1018.65 1024.00 L 5.35 1024.00 C 1.83 1009.29 0.00 994.25 0.00 978.95 C 0.00 807.52 229.23 668.55 512.00 668.55 Z" fill="url(#linearGradient-1)" fill-rule="evenodd" group-id="1" id="形状结合" node-id="18" stroke="none" target-height="355.45435" target-width="1024" target-x="0" target-y="668.546"></path><path d="M 81.27 219.43 L 81.27 218.98 C 78.60 219.28 75.89 219.43 73.14 219.43 C 32.75 219.43 0.00 186.68 0.00 146.29 C 0.00 105.89 32.75 73.14 73.14 73.14 C 77.90 73.14 82.55 73.60 87.06 74.46 C 101.74 31.16 142.72 0.00 190.98 0.00 C 250.41 0.00 298.81 47.25 300.64 106.24 C 303.31 105.85 306.05 105.65 308.83 105.65 C 340.24 105.65 365.71 131.12 365.71 162.54 C 365.71 193.96 340.24 219.43 308.83 219.43 C 306.07 219.43 303.35 219.23 300.70 218.85 L 300.70 219.43 L 81.27 219.43 Z" fill="url(#linearGradient-2)" fill-rule="evenodd" group-id="1" id="形状结合" node-id="19" stroke="none" target-height="219.42857" target-width="365.7143" target-x="0" target-y="0"></path><path d="M 715.17 260.06 L 715.17 259.91 C 713.83 260.01 712.48 260.06 711.11 260.06 C 681.94 260.06 658.29 236.41 658.29 207.24 C 658.29 178.06 681.94 154.41 711.11 154.41 C 714.24 154.41 717.30 154.68 720.28 155.20 C 731.39 126.22 759.49 105.65 792.38 105.65 C 833.94 105.65 867.82 138.48 869.52 179.62 C 872.16 179.08 874.91 178.79 877.71 178.79 C 900.16 178.79 918.35 196.99 918.35 219.43 C 918.35 241.87 900.16 260.06 877.71 260.06 C 874.93 260.06 872.21 259.78 869.59 259.25 L 869.59 260.06 L 715.17 260.06 Z" fill="url(#linearGradient-3)" fill-rule="evenodd" group-id="1" id="形状结合备份" node-id="20" stroke="none" target-height="154.41272" target-width="260.06348" target-x="658.2857" target-y="105.650795"></path><g node-id="51"><path d="M 203.28 506.66 L 204.68 507.48 L 205.62 508.70 L 206.04 510.19 L 205.84 511.80 L 200.93 525.64 L 196.03 537.84 L 191.14 548.55 L 186.29 557.89 L 181.47 566.00 L 176.71 572.99 L 172.28 578.61 L 167.90 583.40 L 163.55 587.44 L 159.24 590.80 L 154.95 593.53 L 150.65 595.69 L 146.34 597.30 L 142.00 598.41 L 140.80 598.61 L 140.49 599.02 L 137.11 603.23 L 133.31 607.64 L 131.72 609.41 L 125.86 615.45 L 120.02 620.72 L 114.20 625.25 L 108.39 629.12 L 102.57 632.35 L 96.73 634.98 L 90.53 637.13 L 84.28 638.66 L 77.95 639.59 L 71.50 639.91 L 64.91 639.63 L 58.16 638.72 L 56.65 638.12 L 55.54 637.04 L 54.92 635.63 L 54.88 634.00 L 55.48 632.49 L 56.56 631.39 L 57.98 630.76 L 59.60 630.73 L 65.61 631.54 L 71.47 631.79 L 77.21 631.49 L 82.87 630.65 L 88.46 629.26 L 94.01 627.31 L 99.22 624.94 L 104.44 622.01 L 109.69 618.50 L 114.98 614.34 L 120.31 609.51 L 125.71 603.94 L 127.32 602.15 L 130.16 598.88 L 129.21 598.78 L 124.37 597.89 L 119.34 596.41 L 114.10 594.29 L 112.37 593.47 L 111.65 593.01 L 108.73 590.46 L 106.35 587.92 L 104.45 585.39 L 102.99 582.86 L 101.84 580.12 L 101.13 577.42 L 100.83 574.75 L 100.92 572.06 L 101.41 569.43 L 102.28 566.82 L 103.57 564.21 L 105.31 561.58 L 107.65 558.89 L 110.37 556.41 L 113.51 554.14 L 116.88 552.20 L 120.48 550.56 L 124.33 549.23 L 128.29 548.25 L 132.30 547.66 L 136.39 547.45 L 141.03 547.72 L 144.86 548.40 L 147.99 549.43 L 150.55 550.76 L 152.62 552.38 L 154.37 554.41 L 155.68 556.71 L 156.55 559.35 L 156.96 562.39 L 156.87 565.90 L 156.17 570.04 L 154.77 574.73 L 152.53 580.06 L 149.31 586.14 L 148.43 587.59 L 149.23 587.21 L 153.27 584.93 L 157.36 581.99 L 161.51 578.32 L 165.74 573.84 L 170.05 568.46 L 174.46 562.06 L 178.81 554.80 L 183.24 546.34 L 187.77 536.55 L 192.37 525.30 L 197.05 512.44 L 198.13 509.23 L 198.95 507.82 L 200.17 506.88 L 201.66 506.47 L 203.28 506.66 Z M 136.74 590.71 L 136.94 590.45 L 141.10 584.51 L 144.17 579.43 L 146.32 575.12 L 147.72 571.47 L 148.55 568.16 L 148.84 565.42 L 148.67 563.15 L 148.13 561.25 L 147.24 559.65 L 145.99 558.30 L 144.36 557.20 L 142.29 556.35 L 139.68 555.79 L 136.39 555.58 L 133.11 555.75 L 129.90 556.22 L 126.74 556.99 L 123.66 558.04 L 120.80 559.32 L 118.14 560.82 L 115.66 562.58 L 113.56 564.47 L 111.80 566.49 L 110.27 568.88 L 109.35 571.22 L 108.97 573.54 L 109.09 575.89 L 109.71 578.13 L 110.91 580.47 L 112.77 582.95 L 115.45 585.61 L 116.36 586.37 L 117.49 586.91 L 122.00 588.70 L 126.33 589.93 L 130.52 590.62 L 134.60 590.81 L 136.74 590.71 Z" fill="#dee7fd" fill-rule="nonzero" group-id="1,2" id="路径-24" node-id="21" stroke="none" target-height="133.44958" target-width="151.15933" target-x="54.880753" target-y="506.46533"></path></g><path d="M 783.41 480.15 L 911.59 456.69 L 915.58 523.55 L 783.41 480.15 Z M 775.26 455.80 L 827.16 395.31 L 854.79 425.55 L 775.26 455.80 Z" fill="#dee6fc" fill-rule="evenodd" group-id="1,3" id="形状结合" node-id="22" stroke="none" target-height="128.24133" target-width="140.31915" target-x="775.2638" target-y="395.31055"></path></g><path d="M 490.44 314.51 C 364.61 314.51 263.31 402.37 263.31 510.68 C 263.31 577.38 302.10 636.24 360.65 672.32 L 360.65 732.74 C 360.65 740.58 366.18 746.06 373.33 746.06 C 375.71 746.06 378.09 745.25 379.66 744.50 L 441.36 703.69 C 457.18 706.80 473.00 707.61 489.62 707.61 C 615.50 707.61 716.80 619.75 716.80 511.44 C 717.56 402.37 615.50 314.51 490.44 314.51 L 490.44 314.51 Z M 413.24 541.26 C 398.93 541.26 387.66 529.20 387.66 515.66 C 387.66 501.34 399.70 490.06 413.24 490.06 C 427.55 490.06 438.83 502.11 438.83 515.66 C 439.55 529.20 427.55 541.26 413.24 541.26 Z M 515.66 541.26 C 501.34 541.26 490.06 529.20 490.06 515.66 C 490.06 501.34 502.11 490.06 515.66 490.06 C 529.98 490.06 541.26 502.11 541.26 515.66 C 541.26 529.20 529.20 541.26 515.66 541.26 Z M 610.74 541.26 C 596.42 541.26 585.14 529.20 585.14 515.66 C 585.14 501.34 597.20 490.06 610.74 490.06 C 625.06 490.06 636.34 502.11 636.34 515.66 C 636.34 529.20 625.06 541.26 610.74 541.26 Z" fill="#9eb8fe" fill-rule="nonzero" id="形状" node-id="23" stroke="none" target-height="431.54285" target-width="454.2419" target-x="263.3143" target-y="314.51428"></path><path d="M 512.38 314.51 C 386.55 314.51 285.26 402.37 285.26 510.68 C 285.26 577.38 324.04 636.24 382.59 672.32 L 382.59 732.74 C 382.59 740.58 388.12 746.06 395.27 746.06 C 397.65 746.06 400.03 745.25 401.61 744.50 L 463.30 703.69 C 479.12 706.80 494.94 707.61 511.57 707.61 C 637.45 707.61 738.74 619.75 738.74 511.44 C 739.50 402.37 637.45 314.51 512.38 314.51 L 512.38 314.51 Z M 413.24 541.26 C 398.93 541.26 387.66 529.20 387.66 515.66 C 387.66 501.34 399.70 490.06 413.24 490.06 C 427.55 490.06 438.83 502.11 438.83 515.66 C 439.55 529.20 427.55 541.26 413.24 541.26 Z M 515.66 541.26 C 501.34 541.26 490.06 529.20 490.06 515.66 C 490.06 501.34 502.11 490.06 515.66 490.06 C 529.98 490.06 541.26 502.11 541.26 515.66 C 541.26 529.20 529.20 541.26 515.66 541.26 Z M 610.74 541.26 C 596.42 541.26 585.14 529.20 585.14 515.66 C 585.14 501.34 597.20 490.06 610.74 490.06 C 625.06 490.06 636.34 502.11 636.34 515.66 C 636.34 529.20 625.06 541.26 610.74 541.26 Z" fill="#bcd0ff" fill-rule="nonzero" id="形状" node-id="24" stroke="none" target-height="431.54285" target-width="454.24194" target-x="285.25714" target-y="314.51428"></path></svg>