<?xml version="1.0" standalone="no"?><!DOCTYPE svg PUBLIC "-//W3C//DTD SVG 1.1//EN" "http://www.w3.org/Graphics/SVG/1.1/DTD/svg11.dtd"><svg height="1024" node-id="1" sillyvg="true" template-height="1024" template-width="1024" version="1.1" viewBox="0 0 1024 1024" width="1024" xmlns="http://www.w3.org/2000/svg" xmlns:xlink="http://www.w3.org/1999/xlink"><defs node-id="36"><linearGradient gradientUnits="objectBoundingBox" id="linearGradient-1" node-id="5" spreadMethod="pad" x1="0.5" x2="0.5" y1="0.68847996" y2="0.000000000000000000000000000000006162976"><stop offset="0" stop-color="#95a4f7" stop-opacity="0"></stop><stop offset="1" stop-color="#c5d6ff" stop-opacity="0.44536883"></stop></linearGradient><linearGradient gradientUnits="objectBoundingBox" id="linearGradient-2" node-id="8" spreadMethod="pad" x1="0.5" x2="0.5" y1="1" y2="0.000000000000000000000000000000006162976"><stop offset="0" stop-color="#95a4f7" stop-opacity="0"></stop><stop offset="1" stop-color="#c5d6ff" stop-opacity="0.44536883"></stop></linearGradient><linearGradient gradientUnits="objectBoundingBox" id="linearGradient-3" node-id="11" spreadMethod="pad" x1="0.5" x2="0.5" y1="1" y2="0.000000000000000000000000000000006162976"><stop offset="0" stop-color="#95a4f7" stop-opacity="0"></stop><stop offset="1" stop-color="#c5d6ff" stop-opacity="0.44536883"></stop></linearGradient><clipPath id="mask-5" node-id="31"><path d="M 478.00 555.00 L 677.85 555.00 L 677.85 754.88 L 478.00 754.88 Z" fill="#000000" fill-rule="evenodd" node-id="59" stroke="none" target-height="199.8822" target-width="199.85303" target-x="478" target-y="555"></path></clipPath></defs><path d="M 0.00 0.00 L 1024.00 0.00 L 1024.00 1024.00 L 0.00 1024.00 Z" fill="#f4f5fc" fill-rule="evenodd" node-id="65" stroke="none" target-height="1024" target-width="1024" target-x="0" target-y="0"></path><path d="M 349.71 785.49 L 239.72 715.21 L 349.71 679.64 Z" fill="#e2e9ff" fill-rule="evenodd" id="路径-27" node-id="17" stroke="none" target-height="105.85028" target-width="109.99533" target-x="239.71594" target-y="679.6386"></path><g node-id="102"><path d="M 512.00 668.55 C 794.77 668.55 1024.00 807.52 1024.00 978.95 C 1024.00 994.25 1022.17 1009.29 1018.65 1024.00 L 5.35 1024.00 C 1.83 1009.29 0.00 994.25 0.00 978.95 C 0.00 807.52 229.23 668.55 512.00 668.55 Z" fill="url(#linearGradient-1)" fill-rule="evenodd" group-id="1" id="形状结合" node-id="19" stroke="none" target-height="355.45435" target-width="1024" target-x="0" target-y="668.546"></path><path d="M 81.27 219.43 L 81.27 218.98 C 78.60 219.28 75.89 219.43 73.14 219.43 C 32.75 219.43 0.00 186.68 0.00 146.29 C 0.00 105.89 32.75 73.14 73.14 73.14 C 77.90 73.14 82.55 73.60 87.06 74.46 C 101.74 31.16 142.72 0.00 190.98 0.00 C 250.41 0.00 298.81 47.25 300.64 106.24 C 303.31 105.85 306.05 105.65 308.83 105.65 C 340.24 105.65 365.71 131.12 365.71 162.54 C 365.71 193.96 340.24 219.43 308.83 219.43 C 306.07 219.43 303.35 219.23 300.70 218.85 L 300.70 219.43 L 81.27 219.43 Z" fill="url(#linearGradient-2)" fill-rule="evenodd" group-id="1" id="形状结合" node-id="20" stroke="none" target-height="219.42857" target-width="365.7143" target-x="0" target-y="0"></path><path d="M 715.17 260.06 L 715.17 259.91 C 713.83 260.01 712.48 260.06 711.11 260.06 C 681.94 260.06 658.29 236.41 658.29 207.24 C 658.29 178.06 681.94 154.41 711.11 154.41 C 714.24 154.41 717.30 154.68 720.28 155.20 C 731.39 126.22 759.49 105.65 792.38 105.65 C 833.94 105.65 867.82 138.48 869.52 179.62 C 872.16 179.08 874.91 178.79 877.71 178.79 C 900.16 178.79 918.35 196.99 918.35 219.43 C 918.35 241.87 900.16 260.06 877.71 260.06 C 874.93 260.06 872.21 259.78 869.59 259.25 L 869.59 260.06 L 715.17 260.06 Z" fill="url(#linearGradient-3)" fill-rule="evenodd" group-id="1" id="形状结合备份" node-id="21" stroke="none" target-height="154.41272" target-width="260.06348" target-x="658.2857" target-y="105.650795"></path><g node-id="104"><path d="M 203.28 506.66 L 204.68 507.48 L 205.62 508.70 L 206.04 510.19 L 205.84 511.80 L 200.93 525.64 L 196.03 537.84 L 191.14 548.55 L 186.29 557.89 L 181.47 566.00 L 176.71 572.99 L 172.28 578.61 L 167.90 583.40 L 163.55 587.44 L 159.24 590.80 L 154.95 593.53 L 150.65 595.69 L 146.34 597.30 L 142.00 598.41 L 140.80 598.61 L 140.49 599.02 L 137.11 603.23 L 133.31 607.64 L 131.72 609.41 L 125.86 615.45 L 120.02 620.72 L 114.20 625.25 L 108.39 629.12 L 102.57 632.35 L 96.73 634.98 L 90.53 637.13 L 84.28 638.66 L 77.95 639.59 L 71.50 639.91 L 64.91 639.63 L 58.16 638.72 L 56.65 638.12 L 55.54 637.04 L 54.92 635.63 L 54.88 634.00 L 55.48 632.49 L 56.56 631.39 L 57.98 630.76 L 59.60 630.73 L 65.61 631.54 L 71.47 631.79 L 77.21 631.49 L 82.87 630.65 L 88.46 629.26 L 94.01 627.31 L 99.22 624.94 L 104.44 622.01 L 109.69 618.50 L 114.98 614.34 L 120.31 609.51 L 125.71 603.94 L 127.32 602.15 L 130.16 598.88 L 129.21 598.78 L 124.37 597.89 L 119.34 596.41 L 114.10 594.29 L 112.37 593.47 L 111.65 593.01 L 108.73 590.46 L 106.35 587.92 L 104.45 585.39 L 102.99 582.86 L 101.84 580.12 L 101.13 577.42 L 100.83 574.75 L 100.92 572.06 L 101.41 569.43 L 102.28 566.82 L 103.57 564.21 L 105.31 561.58 L 107.65 558.89 L 110.37 556.41 L 113.51 554.14 L 116.88 552.20 L 120.48 550.56 L 124.33 549.23 L 128.29 548.25 L 132.30 547.66 L 136.39 547.45 L 141.03 547.72 L 144.86 548.40 L 147.99 549.43 L 150.55 550.76 L 152.62 552.38 L 154.37 554.41 L 155.68 556.71 L 156.55 559.35 L 156.96 562.39 L 156.87 565.90 L 156.17 570.04 L 154.77 574.73 L 152.53 580.06 L 149.31 586.14 L 148.43 587.59 L 149.23 587.21 L 153.27 584.93 L 157.36 581.99 L 161.51 578.32 L 165.74 573.84 L 170.05 568.46 L 174.46 562.06 L 178.81 554.80 L 183.24 546.34 L 187.77 536.55 L 192.37 525.30 L 197.05 512.44 L 198.13 509.23 L 198.95 507.82 L 200.17 506.88 L 201.66 506.47 L 203.28 506.66 Z M 136.74 590.71 L 136.94 590.45 L 141.10 584.51 L 144.17 579.43 L 146.32 575.12 L 147.72 571.47 L 148.55 568.16 L 148.84 565.42 L 148.67 563.15 L 148.13 561.25 L 147.24 559.65 L 145.99 558.30 L 144.36 557.20 L 142.29 556.35 L 139.68 555.79 L 136.39 555.58 L 133.11 555.75 L 129.90 556.22 L 126.74 556.99 L 123.66 558.04 L 120.80 559.32 L 118.14 560.82 L 115.66 562.58 L 113.56 564.47 L 111.80 566.49 L 110.27 568.88 L 109.35 571.22 L 108.97 573.54 L 109.09 575.89 L 109.71 578.13 L 110.91 580.47 L 112.77 582.95 L 115.45 585.61 L 116.36 586.37 L 117.49 586.91 L 122.00 588.70 L 126.33 589.93 L 130.52 590.62 L 134.60 590.81 L 136.74 590.71 Z" fill="#dee7fd" fill-rule="nonzero" group-id="1,3" id="路径-24" node-id="22" stroke="none" target-height="133.44958" target-width="151.15933" target-x="54.880753" target-y="506.46533"></path></g><g node-id="105"><path d="M 783.41 480.15 L 911.59 456.69 L 915.58 523.55 L 783.41 480.15 Z M 775.26 455.80 L 827.16 395.31 L 854.79 425.55 L 775.26 455.80 Z" fill="#dee6fc" fill-rule="evenodd" group-id="1,4" id="形状结合" node-id="23" stroke="none" target-height="128.24133" target-width="140.31915" target-x="775.2638" target-y="395.31055"></path></g><g node-id="106"><path d="M 416.83 274.35 L 762.35 366.93 L 763.78 367.65 L 764.78 368.80 L 765.28 370.24 L 765.18 371.83 L 650.02 801.63 L 649.30 803.06 L 648.15 804.05 L 646.71 804.55 L 645.12 804.45 L 644.35 804.16 L 643.65 803.71 L 630.02 793.11 L 617.76 784.20 L 606.76 776.83 L 596.91 770.82 L 588.13 766.03 L 580.29 762.32 L 573.33 759.55 L 567.14 757.61 L 560.79 756.19 L 553.34 755.10 L 544.64 754.39 L 534.55 754.14 L 522.91 754.41 L 509.54 755.29 L 494.28 756.87 L 476.93 759.23 L 476.93 759.23 L 474.23 759.35 L 471.60 758.93 L 469.12 757.97 L 466.84 756.51 L 453.09 745.75 L 440.82 736.78 L 429.92 729.40 L 420.27 723.44 L 411.75 718.73 L 404.24 715.12 L 397.65 712.47 L 391.86 710.65 L 385.98 709.34 L 378.91 708.32 L 370.48 707.63 L 360.50 707.37 L 348.79 707.59 L 335.14 708.39 L 319.33 709.86 L 301.13 712.09 L 299.54 711.98 L 298.17 711.31 L 297.16 710.17 L 296.63 708.66 L 296.73 707.09 L 411.93 277.18 L 412.64 275.75 L 413.79 274.75 L 415.23 274.25 L 416.83 274.35 Z" fill="#9cb8ff" fill-opacity="0.25275093" fill-rule="evenodd" group-id="1,5" id="矩形" node-id="24" stroke="none" target-height="530.298" target-width="468.64392" target-x="296.63263" target-y="274.25333"></path></g><path d="M 322.58 349.46 L 680.29 349.46 C 682.50 349.46 684.29 351.25 684.29 353.46 L 684.29 798.42 C 684.29 800.62 682.50 802.41 680.29 802.41 C 679.74 802.41 679.19 802.30 678.68 802.08 C 641.17 785.59 612.56 777.35 592.84 777.35 C 573.06 777.35 544.15 785.66 506.13 802.26 L 506.13 802.26 C 502.80 803.72 499.01 803.71 495.68 802.24 C 458.10 785.65 430.00 777.35 411.39 777.35 C 392.78 777.35 363.69 785.64 324.12 802.22 C 322.09 803.08 319.74 802.12 318.89 800.08 C 318.68 799.59 318.58 799.06 318.58 798.53 L 318.58 353.46 C 318.58 351.25 320.37 349.46 322.58 349.46 Z" fill="#9eb8fe" fill-rule="evenodd" group-id="1" id="矩形" node-id="25" stroke="none" target-height="454.25665" target-width="365.71436" target-x="318.5777" target-y="349.46033"></path><path d="M 337.21 349.46 L 694.92 349.46 C 697.13 349.46 698.92 351.25 698.92 353.46 L 698.92 798.42 C 698.92 800.62 697.13 802.41 694.92 802.41 C 694.37 802.41 693.82 802.30 693.31 802.08 C 655.80 785.59 627.19 777.35 607.47 777.35 C 587.68 777.35 558.78 785.66 520.76 802.26 L 520.76 802.26 C 517.43 803.72 513.64 803.71 510.31 802.24 C 472.73 785.65 444.63 777.35 426.02 777.35 C 407.41 777.35 378.32 785.64 338.75 802.22 C 336.71 803.08 334.37 802.12 333.52 800.08 C 333.31 799.59 333.21 799.06 333.21 798.53 L 333.21 353.46 C 333.21 351.25 335.00 349.46 337.21 349.46 Z" fill="#bcd0ff" fill-rule="evenodd" group-id="1" id="矩形" node-id="26" stroke="none" target-height="454.25665" target-width="365.7144" target-x="333.20627" target-y="349.46033"></path><path d="M 373.84 406.98 L 657.84 406.98 L 657.84 423.24 L 373.84 423.24 Z" fill="#ffffff" fill-opacity="0.4984545" fill-rule="evenodd" group-id="1,6" id="矩形" node-id="27" stroke="none" target-height="16.253967" target-width="283.99997" target-x="373.84128" target-y="406.98413"></path><path d="M 373.84 463.87 L 657.84 463.87 L 657.84 480.13 L 373.84 480.13 Z" fill="#ffffff" fill-opacity="0.4984545" fill-rule="evenodd" group-id="1,7" id="矩形备份" node-id="28" stroke="none" target-height="16.253967" target-width="283.99997" target-x="373.84128" target-y="463.87302"></path><path d="M 373.84 520.76 L 476.24 520.76 L 476.24 537.02 L 373.84 537.02 Z" fill="#ffffff" fill-opacity="0.4984545" fill-rule="evenodd" group-id="1,8" id="矩形备份-2" node-id="29" stroke="none" target-height="16.253967" target-width="102.399994" target-x="373.84128" target-y="520.7619"></path></g><g clip-path="url(#mask-5)" group-id="2" node-id="100"><path d="M 620.88 685.12 L 624.90 679.61 L 628.40 673.87 L 631.38 667.89 L 633.86 661.64 L 635.81 655.21 L 637.20 648.67 L 638.04 642.01 L 638.33 635.19 L 638.00 632.74 L 637.08 630.58 L 635.65 628.73 L 633.80 627.30 L 631.64 626.39 L 629.19 626.06 L 626.75 626.39 L 624.58 627.30 L 622.73 628.73 L 621.31 630.58 L 620.39 632.74 L 620.06 635.19 L 619.84 640.33 L 619.23 645.29 L 618.25 650.09 L 616.89 654.75 L 615.16 659.31 L 613.12 663.65 L 610.76 667.79 L 608.09 671.74 L 605.12 675.47 L 601.90 678.94 L 598.42 682.16 L 594.68 685.12 L 590.73 687.79 L 586.59 690.14 L 582.25 692.18 L 577.69 693.90 L 573.03 695.25 L 568.22 696.23 L 563.26 696.83 L 558.12 697.04 L 552.98 696.82 L 548.02 696.21 L 543.22 695.23 L 538.56 693.87 L 534.00 692.14 L 529.66 690.10 L 525.52 687.75 L 521.57 685.07 L 517.84 682.10 L 514.37 678.88 L 511.15 675.41 L 508.19 671.66 L 505.52 667.71 L 503.17 663.57 L 501.13 659.23 L 499.41 654.67 L 498.06 650.01 L 497.08 645.20 L 496.48 640.24 L 496.27 635.10 L 496.49 629.96 L 497.10 625.00 L 498.08 620.20 L 499.44 615.54 L 501.17 610.98 L 503.21 606.64 L 505.56 602.50 L 508.24 598.56 L 511.21 594.82 L 514.43 591.35 L 517.90 588.13 L 521.65 585.17 L 525.60 582.50 L 529.74 580.15 L 534.08 578.12 L 538.64 576.39 L 543.30 575.04 L 548.11 574.06 L 553.07 573.47 L 558.21 573.25 L 563.98 573.53 L 569.57 574.31 L 575.00 575.58 L 580.29 577.34 L 585.41 579.57 L 590.25 582.22 L 594.84 585.29 L 599.19 588.80 L 603.20 592.68 L 606.83 596.90 L 610.10 601.50 L 613.02 606.49 L 614.45 608.50 L 616.27 609.99 L 618.39 610.96 L 620.69 611.37 L 623.03 611.17 L 625.35 610.33 L 627.37 608.90 L 628.86 607.08 L 629.83 604.96 L 630.24 602.66 L 630.04 600.32 L 629.20 598.00 L 625.86 592.23 L 622.19 586.90 L 618.18 581.98 L 613.83 577.45 L 609.11 573.25 L 604.16 569.49 L 598.98 566.16 L 593.54 563.23 L 587.88 560.72 L 582.11 558.67 L 576.19 557.07 L 570.12 555.90 L 563.98 555.21 L 557.82 555.00 L 551.61 555.27 L 545.34 556.03 L 539.18 557.27 L 533.08 559.03 L 527.03 561.32 L 521.00 564.16 L 515.23 567.50 L 509.90 571.17 L 504.98 575.18 L 500.45 579.53 L 496.25 584.25 L 492.49 589.20 L 489.16 594.38 L 486.23 599.82 L 483.72 605.48 L 481.67 611.25 L 480.07 617.17 L 478.90 623.24 L 478.21 629.38 L 478.00 635.54 L 478.27 641.75 L 479.03 648.02 L 480.27 654.18 L 482.03 660.28 L 484.32 666.33 L 487.16 672.36 L 490.50 678.13 L 494.17 683.46 L 498.18 688.38 L 502.53 692.91 L 507.25 697.11 L 512.20 700.87 L 517.38 704.20 L 522.82 707.13 L 528.47 709.64 L 534.25 711.69 L 540.17 713.29 L 546.24 714.46 L 552.38 715.15 L 558.54 715.36 L 564.75 715.09 L 571.02 714.33 L 577.18 713.09 L 583.28 711.33 L 589.33 709.04 L 595.36 706.20 L 599.78 703.70 L 604.02 700.94 L 608.09 697.91 L 608.90 698.84 L 645.49 735.43 L 647.48 736.89 L 649.67 737.74 L 651.99 738.00 L 654.30 737.67 L 656.46 736.75 L 658.40 735.22 L 659.84 733.28 L 660.69 731.14 L 660.97 728.87 L 660.69 726.60 L 659.84 724.46 L 658.40 722.52 L 621.81 685.93 L 620.89 685.12 L 620.88 685.12 Z" fill="#ffffff" fill-rule="evenodd" group-id="2,9" id="Fill-1" node-id="34" stroke="none" target-height="182.99829" target-width="182.97342" target-x="478.0002" target-y="555.00055"></path></g></svg>