<?xml version="1.0" standalone="no"?><!DOCTYPE svg PUBLIC "-//W3C//DTD SVG 1.1//EN" "http://www.w3.org/Graphics/SVG/1.1/DTD/svg11.dtd"><svg t="1696261830043" class="icon" viewBox="0 0 1024 1024" version="1.1" xmlns="http://www.w3.org/2000/svg" p-id="17842" xmlns:xlink="http://www.w3.org/1999/xlink" width="200" height="200"><path d="M0 0m113.777778 0l796.444444 0q113.777778 0 113.777778 113.777778l0 796.444444q0 113.777778-113.777778 113.777778l-796.444444 0q-113.777778 0-113.777778-113.777778l0-796.444444q0-113.777778 113.777778-113.777778Z" fill="#2ac4ff" p-id="17843" data-spm-anchor-id="a313x.search_index.0.i9.496f3a81VFgkmi" class="selected"></path><path d="M714.353778 312.263111l-1.080889-1.422222A282.737778 282.737778 0 0 0 512.284444 227.555556 282.737778 282.737778 0 0 0 311.182222 310.840889 283.136 283.136 0 0 0 228.124444 511.829333a284.046222 284.046222 0 0 0 284.16 284.273778h211.854223a22.016 22.016 0 0 0 22.016-21.674667v-101.148444c15.189333-22.300444 27.648-46.990222 36.295111-73.386667A287.630222 287.630222 0 0 0 796.444444 511.886222a282.737778 282.737778 0 0 0-82.090666-199.566222z" fill="#FFFFFF" p-id="17844" data-spm-anchor-id="a313x.search_index.0.i16.496f3a81VFgkmi" class=""></path><path d="M369.777778 455.111111h56.888889v113.777778h-56.888889zM483.555556 398.222222h56.888888v227.555556h-56.888888zM597.333333 455.111111h56.888889v113.777778h-56.888889z" fill="#e08fc8" p-id="17845" data-spm-anchor-id="a313x.search_index.0.i13.496f3a81VFgkmi" class=""></path></svg>
